<svg version="1.1" xmlns="http://www.w3.org/2000/svg" viewBox="0 0 1495 2048" width="32" height="32">
<rect width="1495" height="2048" fill="#1A1A1A"/>
<path fill="#FFFFFF" d="M 667.577 692.398 C 744.841 689.418 811.857 722.066 863.639 778.345 C 883.494 773.417 896.56 758.331 919.89 756.329 C 953.61 753.436 955.474 777.861 976.474 794.586 C 986.813 772.749 999.713 749.538 1019.38 734.737 C 1039.93 719.274 1066.84 708.773 1092.48 707.305 C 1139.25 704.176 1185.28 720.165 1220.04 751.611 C 1261.77 789.038 1277.15 819.819 1288.4 874.251 C 1304.72 953.212 1291.24 1038.5 1192.86 1041.37 C 1145.76 1042.74 1108.69 1028.84 1070.16 1001.28 C 1059.02 993.304 1048.74 987.454 1038.35 977.925 C 1022.84 987.306 1013.69 995.398 999.303 1005.94 L 940.114 1048.94 C 913.112 1068.92 884.466 1086.11 858.671 1107.99 C 844.015 1119.24 838.244 1132.11 828.761 1146.97 C 793.959 1200.88 770.062 1259.73 750.957 1320.23 C 741.825 1349.15 670.663 1345.93 724.174 1283.46 C 740.593 1264.29 767.732 1212.98 783.874 1188.91 C 795.913 1170.96 809.185 1141.55 824.166 1123.66 C 870.651 1069.52 936.954 1033.5 993.854 991.508 C 1004.21 983.903 1015.72 977.705 1025.26 969.55 C 1028.67 960.652 1014.92 947.934 1010.39 939.712 C 995.059 911.857 982.658 886.012 977.994 854.177 C 975.397 836.456 977.135 828.138 970.703 811.411 C 953.252 808.221 950.476 803.091 944.271 786.944 C 939.893 775.551 933.458 775.572 922.856 774.862 C 922.421 770.837 922.188 766.518 920.916 762.727 L 920.647 764.327 L 921.743 775.571 C 904.867 776.98 889.854 787.229 875.602 796.603 C 920.465 864.896 929.683 970.069 863.36 1028.04 C 803.51 1080.36 698.563 1051.86 643.062 1005.47 C 613.809 981.02 587.656 951.088 569.948 917.267 C 541.6 864.292 538.107 826.536 467.686 819.904 C 459.946 827.557 451.144 824.466 443.459 829.061 C 422.5 841.594 403.295 861.715 383.933 876.211 C 369.49 887.023 350.065 896.665 335.237 907.738 C 324.193 915.984 313.384 925.998 303.197 935.307 C 298.219 939.856 288.141 946.814 284.382 950.82 C 256.975 980.033 227.833 1007.39 200.734 1036.75 C 189.029 1049.44 169.791 1063.25 159.157 1075.67 C 149.49 1087.05 141.631 1099.86 135.856 1113.63 C 124.437 1141.17 129.754 1156.42 125.766 1183.41 C 121.143 1214.72 111.921 1244.09 115.1 1276.59 C 116.566 1291.57 120.318 1302.97 117.745 1318.14 C 111.405 1327.01 87.4346 1343.56 80.2181 1329.77 C 72.6499 1315.31 78.7949 1276.41 82.7549 1259.82 C 89.8437 1235.22 100.857 1211.09 105.164 1185.76 C 111.48 1148.61 105.174 1115.78 128.774 1082.39 C 144.938 1059.53 165.065 1050.5 183.469 1031.47 C 196.062 1018.44 206.638 1003.29 221.36 991.52 C 232.942 980.994 243.167 964.883 255.512 953.911 C 273.123 939.517 294.166 914.177 313.755 903.028 C 354.996 879.559 386.49 847.09 424.731 820.045 C 425.836 814.006 425.292 811.382 427.284 804.82 C 430.781 801.206 432.323 805.225 433.93 804.489 C 452.119 796.155 462.529 795.791 481.439 799.886 C 483.792 800.395 487.997 791.899 489.724 789.504 C 497.57 778.621 513.824 775.822 524.621 768.362 C 541.375 757.644 554.646 743.791 569.496 730.989 C 597.535 706.816 633.057 699.688 667.577 692.398 z M 789.75 1040.43 C 906.36 1039.72 894.96 872.189 845.591 804.381 C 814.966 762.318 775.765 732.947 723.722 723.323 C 702.101 719.324 686.035 713.473 662.676 716.495 C 625.918 718.164 615.617 718.728 587.425 746.922 C 571.742 762.606 566.359 790.732 568.061 812.923 C 572.759 874.176 611.727 941.799 656.459 982.684 C 684.165 1008.01 710.783 1023.54 746.518 1033.52 C 762.995 1038.12 771.254 1041.55 789.098 1040.47 L 789.75 1040.43 z M 1199.08 1018.63 C 1242.61 1014.97 1267.61 996.974 1271.91 948.847 C 1278.4 876.124 1247.7 801.835 1190.04 755.939 C 1153.64 726.966 1122.96 731.091 1079.47 730.287 C 974.563 757.654 997.666 843.556 1041.8 916.648 C 1072.72 967.857 1134.73 1023.93 1199.08 1018.63 z"/>
<path fill="#FFFFFF" d="M 557.2 832.633 L 559.526 834.811 C 561.348 840.226 560.664 854.496 560.571 861.035 C 552.313 859.925 555 837.976 557.2 832.633 z"/>
<path fill="#FFFFFF" d="M 687.127 699.462 C 691.029 701.404 694.113 702.615 695.137 707.005 L 693.704 708.471 C 692.927 708.668 692.147 708.855 691.365 709.029 C 687.874 709.776 687.492 710.039 685.156 708.504 C 684.431 705.19 685.862 702.766 687.127 699.462 z"/>
</svg>